<?xml version="1.0" encoding="UTF-8"?>
<svg id="Layer_1" data-name="Layer 1" xmlns="http://www.w3.org/2000/svg" version="1.1" xmlns:xlink="http://www.w3.org/1999/xlink" viewBox="0 0 720 270">
  <defs>
    <style>
      .cls-1 {
        stroke-width: 1.6px;
      }

      .cls-1, .cls-2, .cls-3, .cls-4 {
        stroke: #fff;
      }

      .cls-1, .cls-5, .cls-4 {
        stroke-miterlimit: 4.8;
      }

      .cls-1, .cls-6, .cls-4 {
        fill: #fff;
      }

      .cls-7 {
        fill: url(#linear-gradient);
      }

      .cls-7, .cls-8, .cls-9, .cls-10, .cls-6 {
        stroke-width: 0px;
      }

      .cls-2 {
        stroke-linejoin: round;
      }

      .cls-2, .cls-3 {
        fill: none;
        stroke-linecap: round;
        stroke-width: 4.9px;
      }

      .cls-8 {
        fill: #336791;
      }

      .cls-3 {
        stroke-linejoin: bevel;
      }

      .cls-5 {
        fill: #000;
        stroke: #000;
        stroke-width: 14.7px;
      }

      .cls-9 {
        fill: #512bd4;
      }

      .cls-10 {
        fill: url(#linear-gradient-2);
      }

      .cls-4 {
        stroke-width: .8px;
      }
    </style>
    <linearGradient id="linear-gradient" x1="-138.3" y1="68.6" x2="-132.6" y2="65.8" gradientTransform="translate(3824.5 -1478.4) scale(23.9 23.9)" gradientUnits="userSpaceOnUse">
      <stop offset="0" stop-color="#e40035"/>
      <stop offset=".2" stop-color="#f60a48"/>
      <stop offset=".3" stop-color="#f20755"/>
      <stop offset=".5" stop-color="#dc087d"/>
      <stop offset=".7" stop-color="#9717e7"/>
      <stop offset="1" stop-color="#6c00f5"/>
    </linearGradient>
    <linearGradient id="linear-gradient-2" x1="-137.6" y1="64.4" x2="-133.9" y2="68.6" gradientTransform="translate(3824.5 -1478.4) scale(23.9 23.9)" gradientUnits="userSpaceOnUse">
      <stop offset="0" stop-color="#ff31d9"/>
      <stop offset="1" stop-color="#ff5be1" stop-opacity="0"/>
    </linearGradient>
  </defs>
  <g>
    <path class="cls-5" d="M402,174.8c1.1-9.3.8-10.6,7.7-9.1l1.8.2c5.3.2,12.3-.9,16.3-2.7,8.8-4.1,14-10.9,5.3-9.1-19.8,4.1-21.1-2.6-21.1-2.6,20.9-31,29.6-70.2,22.1-79.9-20.5-26.2-56.1-13.8-56.7-13.5h-.2c-3.9-.8-8.3-1.3-13.2-1.3-8.9-.1-15.7,2.3-20.9,6.2,0,0-63.4-26.1-60.5,32.8.6,12.5,18,94.9,38.7,70,7.6-9.1,14.9-16.8,14.9-16.8,3.6,2.4,8,3.6,12.5,3.2l.4-.3c-.1,1.1,0,2.2.1,3.5-5.3,6-3.8,7-14.4,9.2-10.8,2.2-4.4,6.2-.3,7.2,5,1.3,16.6,3,24.5-7.9l-.3,1.3c2.1,1.7,2,12,2.2,19.4.3,7.4.8,14.3,2.3,18.4,1.5,4.1,3.3,14.6,17.3,11.6,11.7-2.5,20.7-6.1,21.5-39.7"/>
    <path class="cls-8" d="M433.1,154c-19.8,4.1-21.1-2.6-21.1-2.6,20.9-31,29.6-70.3,22.1-79.9-20.5-26.2-56.1-13.8-56.7-13.5h-.2c-3.9-.8-8.3-1.3-13.2-1.3-8.9-.1-15.7,2.3-20.9,6.2,0,0-63.4-26.1-60.5,32.9.6,12.5,18,94.9,38.7,70,7.6-9.1,14.9-16.8,14.9-16.8,3.6,2.4,8,3.6,12.5,3.2l.4-.3c-.1,1.1,0,2.2.1,3.5-5.3,6-3.8,7-14.4,9.2-10.8,2.2-4.4,6.2-.3,7.2,5,1.3,16.6,3,24.5-7.9l-.3,1.3c2.1,1.7,3.6,10.9,3.3,19.2-.2,8.4-.4,14.1,1.2,18.6,1.6,4.5,3.3,14.6,17.3,11.6,11.7-2.5,17.8-9,18.6-19.9.6-7.7,2-6.6,2-13.5l1.1-3.3c1.3-10.5.2-13.8,7.4-12.3l1.8.2c5.3.2,12.3-.9,16.3-2.7,8.8-4.1,14-10.9,5.3-9.1h0Z"/>
    <path class="cls-2" d="M359.8,160c-.5,19.5.1,39,2,43.8,1.9,4.8,6,14,20,11,11.7-2.5,16-7.4,17.8-18.1,1.4-7.9,4-29.8,4.3-34.3M343.1,62.5s-63.4-25.9-60.5,33c.6,12.5,18,94.9,38.7,70,7.6-9.1,14.4-16.2,14.4-16.2M377.3,57.8c-2.2.7,35.3-13.7,56.6,13.5,7.5,9.6-1.2,48.9-22.1,79.9"/>
    <path class="cls-3" d="M411.9,151.2s1.4,6.7,21.1,2.6c8.7-1.8,3.4,5-5.3,9.1-7.2,3.3-23.4,4.2-23.6-.4-.7-11.9,8.5-8.3,7.8-11.3-.6-2.7-4.7-5.3-7.4-11.9-2.4-5.7-32.5-49.8,8.4-43.3,1.5-.3-10.7-38.9-48.9-39.5-38.3-.6-37,47-37,47"/>
    <path class="cls-2" d="M349.1,155.2c-5.3,6-3.8,7-14.4,9.2-10.8,2.2-4.4,6.2-.3,7.2,5,1.3,16.6,3,24.5-7.9,2.4-3.3,0-8.7-3.3-10-1.6-.7-3.7-1.5-6.4,1.6h0Z"/>
    <path class="cls-2" d="M348.8,155.1c-.5-3.5,1.2-7.7,3-12.5,2.7-7.3,9-14.6,4-37.8-3.7-17.3-28.8-3.6-28.8-1.3,0,2.3,1.1,11.9-.4,23-2,14.5,9.2,26.8,22.2,25.5"/>
    <path class="cls-1" d="M342.8,103.1c-.1.8,1.5,2.9,3.5,3.2,2.1.3,3.8-1.4,3.9-2.2.1-.8-1.5-1.7-3.5-2-2.1-.3-3.8.1-3.9.9h0Z"/>
    <path class="cls-4" d="M405.4,101.5c.1.8-1.5,2.9-3.5,3.2-2.1.3-3.8-1.4-3.9-2.2-.1-.8,1.5-1.7,3.5-2s3.8.1,3.9.9h0Z"/>
    <path class="cls-2" d="M412.8,96c.3,6.3-1.4,10.6-1.6,17.2-.3,9.7,4.6,20.8-2.8,32"/>
  </g>
  <g>
    <path class="cls-7" d="M672.9,77.3l-6.2,92.8-59.8-121.6,66,28.9h0ZM631.5,197.2l-45.2,24.4-45.2-24.4,9.2-21h72l9.2,21h0ZM586.3,94.6l23.7,54.4h-47.4l23.7-54.4h0ZM505.9,170l-6.2-92.7,66-28.9-59.8,121.6h0Z"/>
    <path class="cls-10" d="M672.9,77.3l-6.2,92.8-59.8-121.6,66,28.9h0ZM631.5,197.2l-45.2,24.4-45.2-24.4,9.2-21h72l9.2,21h0ZM586.3,94.6l23.7,54.4h-47.4l23.7-54.4h0ZM505.9,170l-6.2-92.7,66-28.9-59.8,121.6h0Z"/>
  </g>
  <g>
    <rect class="cls-9" x="42.3" y="44.1" width="181.8" height="181.8"/>
    <path class="cls-6" d="M74.7,160.3c-1.3,0-2.4-.4-3.3-1.3-.9-.9-1.3-1.9-1.3-3.1s.4-2.3,1.3-3.2c.9-.9,2-1.3,3.3-1.3s2.4.4,3.3,1.3c.9.9,1.4,1.9,1.4,3.2s-.5,2.3-1.4,3.1c-.9.9-2,1.3-3.3,1.3Z"/>
    <path class="cls-6" d="M126.1,159.5h-8.4l-22-34.7c-.6-.9-1-1.8-1.4-2.7h-.2c.2,1,.3,3.2.3,6.5v31h-7.4v-47.3h8.9l21.3,33.9c.9,1.4,1.5,2.4,1.7,2.9h.1c-.2-1.3-.3-3.4-.3-6.4v-30.4h7.4v47.3Z"/>
    <path class="cls-6" d="M162.1,159.5h-25.9v-47.3h24.8v6.7h-17.2v13.4h15.8v6.6h-15.8v14h18.2v6.6Z"/>
    <path class="cls-6" d="M198.8,118.9h-13.2v40.6h-7.6v-40.6h-13.2v-6.7h34.1v6.7Z"/>
  </g>
</svg>